<?xml version="1.0" encoding="utf-8"?>
<svg viewBox="0 0 128 48" width="512px" height="192px" xmlns="http://www.w3.org/2000/svg"><defs><mask id="mask-0"><g transform="matrix(1, 0, 0, 1, 8, 8)"><rect x="-8" y="-8" width="48" height="48" style="" id="object-0"/><polygon style="stroke-miterlimit: 19.73; stroke-linejoin: round; stroke-linecap: round; stroke-width: 12px; fill: none; stroke: rgb(255, 255, 255);" points="5 10 16 3 27 10 27 22 16 29 5 22" id="object-1"/><polygon style="stroke-miterlimit: 19.73; stroke-linejoin: round; stroke-linecap: round; stroke-width: 8px; stroke: rgb(0, 0, 0);" points="5 10 16 3 27 10 27 22 16 29 5 22" id="object-2"/><line style="fill: rgb(216, 216, 216); stroke-width: 2px; stroke-linecap: round; stroke: rgb(255, 255, 255);" x1="5" y1="22" x2="13" y2="27" id="object-3"/><line style="stroke-width: 2px; stroke-linecap: round; fill: rgb(255, 255, 255); stroke: rgb(255, 255, 255);" x1="27" y1="22" x2="19" y2="27" id="object-4"/><line style="fill: rgb(216, 216, 216); stroke-width: 2px; stroke-linecap: round; stroke: rgb(255, 255, 255);" x1="27" y1="8" x2="25" y2="10" id="object-5"/><line style="fill: rgb(216, 216, 216); stroke-width: 2px; stroke-linecap: round; stroke: rgb(255, 255, 255);" x1="5" y1="8" x2="7" y2="10" id="object-6"/><line style="fill: rgb(216, 216, 216); stroke-width: 2px; stroke-linecap: round; stroke: rgb(255, 255, 255);" x1="32" y1="24" x2="34" y2="26" id="object-7"/><line style="fill: rgb(216, 216, 216); stroke-width: 2px; stroke-linecap: round; stroke: rgb(255, 255, 255);" x1="29" y1="27" x2="31" y2="29" id="object-8"/><line style="fill: rgb(216, 216, 216); stroke-width: 2px; stroke-linecap: round; stroke: rgb(255, 255, 255);" x1="0" y1="24" x2="-2" y2="26" id="object-9"/><line style="fill: rgb(216, 216, 216); stroke-width: 2px; stroke-linecap: round; stroke: rgb(255, 255, 255);" x1="3" y1="27" x2="1" y2="29" id="object-10"/></g></mask><view id="view-1"><title>View 1</title></view></defs><rect width="48" height="48" style="fill: rgb(0, 255, 153); mask: url(&quot;#mask-0&quot;);" id="rect-1"/><path d="M 48.96 30.02 L 48.96 18.82 L 50.76 18.82 L 55.9 27.01 L 55.9 18.82 L 57.57 18.82 L 57.57 30.02 L 55.77 30.02 L 50.62 21.83 L 50.62 30.02 Z M 59.49 30.02 L 59.49 18.82 L 66.44 18.82 L 66.44 20.48 L 61.15 20.48 L 61.15 23.19 L 65.41 23.19 L 65.41 24.85 L 61.15 24.85 L 61.15 28.35 L 66.44 28.35 L 66.44 30.02 Z M 67.72 30.02 L 71.82 24.39 L 67.77 18.82 L 69.82 18.82 L 72.85 22.98 L 75.88 18.82 L 77.93 18.82 L 73.89 24.39 L 77.98 30.02 L 75.92 30.02 L 72.85 25.81 L 69.79 30.02 Z M 83.85 30.23 Q 82.51 30.23 81.51 29.57 Q 80.52 28.91 79.97 27.81 Q 79.42 26.7 79.42 25.35 L 79.42 18.82 L 81.08 18.82 L 81.08 25.35 Q 81.08 26.23 81.41 26.96 Q 81.73 27.69 82.35 28.13 Q 82.97 28.56 83.85 28.56 Q 84.76 28.56 85.37 28.13 Q 85.99 27.69 86.3 26.96 Q 86.62 26.23 86.62 25.35 L 86.62 18.82 L 88.28 18.82 L 88.28 25.35 Q 88.28 26.36 87.97 27.25 Q 87.66 28.13 87.08 28.8 Q 86.49 29.47 85.68 29.85 Q 84.86 30.23 83.85 30.23 Z M 90.06 30.02 L 90.06 18.82 L 91.73 18.82 L 91.73 28.35 L 96.55 28.35 L 96.55 30.02 Z M 98.55 30.02 L 98.55 18.82 L 100.22 18.82 L 100.22 30.02 Z M 102.37 30.02 L 102.37 18.82 L 109.33 18.82 L 109.33 20.48 L 104.04 20.48 L 104.04 23.19 L 108.29 23.19 L 108.29 24.85 L 104.04 24.85 L 104.04 28.35 L 109.33 28.35 L 109.33 30.02 Z M 111.14 30.02 L 111.14 18.82 L 112.94 18.82 L 118.09 27.01 L 118.09 18.82 L 119.75 18.82 L 119.75 30.02 L 117.95 30.02 L 112.81 21.83 L 112.81 30.02 Z" style="fill: rgb(0, 255, 153); text-wrap-mode: nowrap;"/></svg>