<?xml version="1.0" encoding="utf-8"?>
<svg viewBox="0 0 48 48" width="48px" height="48px" xmlns="http://www.w3.org/2000/svg" xmlns:bx="https://boxy-svg.com"><defs><mask id="mask-0"><g transform="matrix(1, 0, 0, 1, 8, 8)"><rect x="-8" y="-8" width="48" height="48" style="" id="object-0"/><polygon style="stroke-miterlimit: 19.73; stroke-linejoin: round; stroke-linecap: round; stroke-width: 12px; fill: none; stroke: rgb(255, 255, 255);" points="5 10 16 3 27 10 27 22 16 29 5 22" id="object-1"/><polygon style="stroke-miterlimit: 19.73; stroke-linejoin: round; stroke-linecap: round; stroke-width: 8px; stroke: rgb(0, 0, 0);" points="5 10 16 3 27 10 27 22 16 29 5 22" id="object-2"/><line style="fill: rgb(216, 216, 216); stroke-width: 2px; stroke-linecap: round; stroke: rgb(255, 255, 255);" x1="5" y1="22" x2="13" y2="27" id="object-3"/><line style="stroke-width: 2px; stroke-linecap: round; fill: rgb(255, 255, 255); stroke: rgb(255, 255, 255);" x1="27" y1="22" x2="19" y2="27" id="object-4"/><line style="fill: rgb(216, 216, 216); stroke-width: 2px; stroke-linecap: round; stroke: rgb(255, 255, 255);" x1="27" y1="8" x2="25" y2="10" id="object-5"/><line style="fill: rgb(216, 216, 216); stroke-width: 2px; stroke-linecap: round; stroke: rgb(255, 255, 255);" x1="5" y1="8" x2="7" y2="10" id="object-6"/><line style="fill: rgb(216, 216, 216); stroke-width: 2px; stroke-linecap: round; stroke: rgb(255, 255, 255);" x1="32" y1="24" x2="34" y2="26" id="object-7"/><line style="fill: rgb(216, 216, 216); stroke-width: 2px; stroke-linecap: round; stroke: rgb(255, 255, 255);" x1="29" y1="27" x2="31" y2="29" id="object-8"/><line style="fill: rgb(216, 216, 216); stroke-width: 2px; stroke-linecap: round; stroke: rgb(255, 255, 255);" x1="0" y1="24" x2="-2" y2="26" id="object-9"/><line style="fill: rgb(216, 216, 216); stroke-width: 2px; stroke-linecap: round; stroke: rgb(255, 255, 255);" x1="3" y1="27" x2="1" y2="29" id="object-10"/></g></mask><bx:grid x="0" y="0" width="1" height="1"/><bx:export><bx:file format="svg" path="logo.svg"/></bx:export></defs><rect width="48" height="48" style="fill: rgb(0, 255, 153); mask: url(&quot;#mask-0&quot;);" id="rect-1"/></svg>