<svg width="250" height="50" viewBox="0 0 250 50" fill="none" xmlns="http://www.w3.org/2000/svg">
<path d="M15.3596 13.8152C26.3784 13.8152 30.7191 22.2959 30.7191 28.246V48.6269H22.7055V28.4512C22.7055 23.5953 19.2329 21.4068 15.3596 21.4068C11.4863 21.4068 8.01369 23.5953 8.01369 28.4512V48.6269H0V28.246C0 22.2959 4.34075 13.8152 15.3596 13.8152Z" fill="#00FF99"/>
<path d="M45.9806 26.7414H62.7426C61.3402 23.3901 58.3351 21.4752 54.3282 21.4752C50.3882 21.4752 47.383 23.3901 45.9806 26.7414ZM54.3282 41.7193C57.6673 41.7193 60.2717 40.4198 61.8745 38.0261H70.6227C68.419 44.9337 62.4755 49.2424 54.395 49.2424C44.044 49.2424 37.0988 42.1296 37.0988 31.5288C37.0988 20.9964 44.044 13.952 54.395 13.952C64.746 13.952 71.6244 20.9964 71.6244 31.5288C71.6244 32.4863 71.5577 33.3754 71.4909 34.2645H45.3796C46.2478 38.9836 49.5868 41.7193 54.3282 41.7193Z" fill="#00FF99"/>
<path d="M85.0411 31.5288L74.0223 14.4308H83.238L89.7825 24.5528L96.3271 14.4308H105.543L94.524 31.5288L105.543 48.6269H96.3271L89.7825 38.5048L83.238 48.6269H74.0223L85.0411 31.5288Z" fill="#00FF99"/>
<path d="M126.591 49.2424C115.572 49.2424 111.232 40.7618 111.232 34.8116V14.4308H119.245V34.6065C119.245 39.3939 122.718 41.6509 126.591 41.6509C130.465 41.6509 133.937 39.3939 133.937 34.6065V14.4308H141.951V34.8116C141.951 40.7618 137.61 49.2424 126.591 49.2424Z" fill="#00FF99"/>
<path d="M148.939 48.6269V0.752313H156.953V48.6269H148.939Z" fill="#00FF99"/>
<path d="M163.877 4.51389C163.877 2.05176 165.814 0 168.285 0C170.756 0 172.692 2.05176 172.692 4.51389C172.692 7.11279 170.756 9.09617 168.285 9.09617C165.814 9.09617 163.877 7.11279 163.877 4.51389ZM164.278 48.6269V14.4308H172.292V48.6269H164.278Z" fill="#00FF99"/>
<path d="M187.238 26.7414H204C202.597 23.3901 199.592 21.4752 195.585 21.4752C191.645 21.4752 188.64 23.3901 187.238 26.7414ZM195.585 41.7193C198.924 41.7193 201.529 40.4198 203.131 38.0261H211.88C209.676 44.9337 203.732 49.2424 195.652 49.2424C185.301 49.2424 178.356 42.1296 178.356 31.5288C178.356 20.9964 185.301 13.952 195.652 13.952C206.003 13.952 212.881 20.9964 212.881 31.5288C212.881 32.4863 212.815 33.3754 212.748 34.2645H186.637C187.505 38.9836 190.844 41.7193 195.585 41.7193Z" fill="#00FF99"/>
<path d="M234.64 13.8152C245.659 13.8152 250 22.2959 250 28.246V48.6269H241.986V28.4512C241.986 23.5953 238.514 21.4068 234.64 21.4068C230.767 21.4068 227.295 23.5953 227.295 28.4512V48.6269H219.281V28.246C219.281 22.2959 223.622 13.8152 234.64 13.8152Z" fill="#00FF99"/>
</svg>